
<svg width="100%" height="100%" viewBox="0 0 627 595" version="1.1" xmlns="http://www.w3.org/2000/svg" xmlns:xlink="http://www.w3.org/1999/xlink" xml:space="preserve" xmlns:serif="http://www.serif.com/" style="fill-rule:evenodd;clip-rule:evenodd;stroke-linecap:round;stroke-linejoin:round;stroke-miterlimit:1.5;">
    <g transform="matrix(1,0,0,1,-1859.57,0)">
        <g id="Artboard3" transform="matrix(0.647478,0,0,0.826236,657.121,0)">
            <rect x="1857.13" y="0" width="967.731" height="720" style="fill:none;"/>
            <g transform="matrix(0.991095,0,0,0.7808,-222.465,467.444)">
                <path d="M2233.39,52.908C2304.52,52.908 2362.28,110.661 2362.28,181.797C2362.28,252.933 2304.52,310.686 2233.39,310.686C2162.25,310.686 2104.5,252.933 2104.5,181.797C2104.5,110.661 2162.25,52.908 2233.39,52.908ZM2233.39,95.889C2280.8,95.889 2319.3,134.383 2319.3,181.797C2319.3,229.211 2280.8,267.706 2233.39,267.706C2185.97,267.706 2147.48,229.211 2147.48,181.797C2147.48,134.383 2185.97,95.889 2233.39,95.889Z" style="fill:white;stroke:rgb(255,254,254);stroke-width:3.11px;"/>
            </g>
            <g transform="matrix(0.991095,0,0,0.7808,129.1,467.444)">
                <path d="M2233.39,52.908C2304.52,52.908 2362.28,110.661 2362.28,181.797C2362.28,252.933 2304.52,310.686 2233.39,310.686C2162.25,310.686 2104.5,252.933 2104.5,181.797C2104.5,110.661 2162.25,52.908 2233.39,52.908ZM2233.39,95.889C2280.8,95.889 2319.3,134.383 2319.3,181.797C2319.3,229.211 2280.8,267.706 2233.39,267.706C2185.97,267.706 2147.48,229.211 2147.48,181.797C2147.48,134.383 2185.97,95.889 2233.39,95.889Z" style="fill:white;stroke:rgb(255,254,254);stroke-width:3.11px;"/>
            </g>
            <g transform="matrix(0.991095,0,0,0.7808,477.453,467.444)">
                <path d="M2233.39,52.908C2304.52,52.908 2362.28,110.661 2362.28,181.797C2362.28,252.933 2304.52,310.686 2233.39,310.686C2162.25,310.686 2104.5,252.933 2104.5,181.797C2104.5,110.661 2162.25,52.908 2233.39,52.908ZM2233.39,95.889C2280.8,95.889 2319.3,134.383 2319.3,181.797C2319.3,229.211 2280.8,267.706 2233.39,267.706C2185.97,267.706 2147.48,229.211 2147.48,181.797C2147.48,134.383 2185.97,95.889 2233.39,95.889Z" style="fill:white;stroke:rgb(255,254,254);stroke-width:3.11px;"/>
            </g>
            <g transform="matrix(1.54445,0,0,1.21031,-1007.29,15.0404)">
                <path d="M2126.68,114.718L2169.35,139.472L2221.74,90.562" style="fill:none;stroke:white;stroke-width:29px;"/>
            </g>
            <g transform="matrix(1.54445,0,0,1.21031,-1025.97,4.44293)">
                <path d="M2061.7,135.801L2091.19,135.801" style="fill:none;stroke:white;stroke-width:31px;"/>
            </g>
            <g transform="matrix(1.54445,0,0,1.21031,-703.061,4.44293)">
                <path d="M2057.55,135.801L2087.93,135.801" style="fill:white;stroke:white;stroke-width:31px;"/>
            </g>
            <g transform="matrix(9.45706e-17,1.21031,-1.54445,7.411e-17,2550.73,-2218.46)">
                <path d="M2057.55,135.801L2085.48,135.801" style="fill:white;stroke:white;stroke-width:31px;"/>
            </g>
            <g transform="matrix(9.45706e-17,1.21031,-1.54445,7.411e-17,2550.73,-2468.11)">
                <path d="M2063.03,135.801L2091.19,135.801" style="fill:none;stroke:white;stroke-width:31px;"/>
            </g>
            <g transform="matrix(1.60333,0,0,1.25457,-1240.26,-59.2738)">
                <path d="M2233.39,52.908C2304.52,52.908 2362.28,110.661 2362.28,181.797C2362.28,252.933 2304.52,310.686 2233.39,310.686C2162.25,310.686 2104.5,252.933 2104.5,181.797C2104.5,110.661 2162.25,52.908 2233.39,52.908ZM2233.39,80.273C2289.42,80.273 2334.91,125.764 2334.91,181.797C2334.91,237.83 2289.42,283.322 2233.39,283.322C2177.36,283.322 2131.86,237.83 2131.86,181.797C2131.86,125.764 2177.36,80.273 2233.39,80.273Z" style="fill:white;stroke:rgb(255,254,254);stroke-width:1.93px;"/>
            </g>
            <g transform="matrix(1.54445,0,0,1.21031,-1014.89,-1.66017)">
                <path d="M1923.47,500.518L1947.08,526.858L2038.8,442.477" style="fill:none;stroke:white;stroke-width:31px;"/>
            </g>
            <g transform="matrix(1.54445,0,0,1.21031,-661.892,-1.66017)">
                <path d="M1923.47,500.518L1947.08,526.858L2038.8,442.477" style="fill:none;stroke:white;stroke-width:31px;"/>
            </g>
            <g transform="matrix(1.54445,0,0,1.21031,-1014.89,0)">
                <path d="M2172.61,303.649L2172.61,432.736" style="fill:none;stroke:white;stroke-width:31px;"/>
            </g>
            <g transform="matrix(1.54445,0,0,1.21031,-1014.89,0)">
                <path d="M1946.27,432.736L1946.27,376.192L2398.76,376.192L2398.76,432.736" style="fill:none;stroke:white;stroke-width:31px;"/>
            </g>
        </g>
    </g>
</svg>
