<svg width="100%" height="100%" viewBox="0 0 53 48" version="1.1" xmlns="http://www.w3.org/2000/svg" xmlns:xlink="http://www.w3.org/1999/xlink" xml:space="preserve" xmlns:serif="http://www.serif.com/" style="fill-rule:evenodd;clip-rule:evenodd;stroke-linecap:round;stroke-linejoin:round;stroke-miterlimit:1.5;">
    <g transform="matrix(1,0,0,1,-3324.56,-91.2667)">
        <g transform="matrix(1.33691,0,0,1.15096,-1102.56,-8.40993)">
            <g transform="matrix(0.135819,0,0,0.158601,3025.64,78.3968)">
                <path d="M2233.39,52.908C2304.52,52.908 2362.28,110.661 2362.28,181.797C2362.28,252.933 2304.52,310.686 2233.39,310.686C2162.25,310.686 2104.5,252.933 2104.5,181.797C2104.5,110.661 2162.25,52.908 2233.39,52.908ZM2233.39,91.727C2283.1,91.727 2323.46,132.086 2323.46,181.797C2323.46,231.508 2283.1,271.867 2233.39,271.867C2183.68,271.867 2143.32,231.508 2143.32,181.797C2143.32,132.086 2183.68,91.727 2233.39,91.727Z" style="fill:white;"/>
            </g>
        </g>
        <g transform="matrix(1.33691,0,0,1.15096,-1102.56,-8.40993)">
            <g transform="matrix(0.211652,0,0,0.245845,2917.06,-19.3543)">
                <path d="M1923.47,500.518L1947.08,526.858L2038.8,442.477" style="fill:none;stroke:white;stroke-width:22.97px;"/>
            </g>
        </g>
    </g>
</svg>
